<?xml version="1.0" encoding="UTF-8"?>
<svg width="10px" height="8px" viewBox="0 0 10 8" version="1.1" xmlns="http://www.w3.org/2000/svg" xmlns:xlink="http://www.w3.org/1999/xlink">
    <title>Arrow_Rot</title>
    <g id="Page-1" stroke="none" stroke-width="1" fill="none" fill-rule="evenodd">
        <g id="Icons" transform="translate(-187.000000, -216.000000)" fill="#FF2846">
            <path d="M191.817825,217.350944 C191.936376,217.519422 192,217.720403 192,217.92641 L191.999032,218.999327 L196,219 C196.552285,219 197,219.447715 197,220 C197,220.552285 196.552285,221 196,221 L191.999032,220.999327 L192,222.07359 C192,222.625874 191.552285,223.07359 191,223.07359 C190.793992,223.07359 190.593012,223.009965 190.424533,222.891415 L187.477649,220.817825 C187.025977,220.500004 186.91747,219.876206 187.235291,219.424533 C187.301527,219.330401 187.383518,219.248411 187.477649,219.182175 L190.424533,217.108585 C190.876206,216.790764 191.500004,216.899271 191.817825,217.350944 Z" id="Arrow_Rot" transform="translate(192.026516, 219.999958) rotate(180.000000) translate(-192.026516, -219.999958) "></path>
        </g>
    </g>
</svg>