<?xml version="1.0" encoding="UTF-8"?>
<svg width="10px" height="8px" viewBox="0 0 10 8" version="1.1" xmlns="http://www.w3.org/2000/svg" xmlns:xlink="http://www.w3.org/1999/xlink">
    <title>Arrow_White</title>
    <g id="Page-1" stroke="none" stroke-width="1" fill="none" fill-rule="evenodd">
        <g id="Icons" transform="translate(-154.000000, -216.000000)" fill="#FFFFFF">
            <path d="M158.817825,217.350944 C158.936376,217.519422 159,217.720403 159,217.92641 L158.999032,218.999327 L163,219 C163.552285,219 164,219.447715 164,220 C164,220.552285 163.552285,221 163,221 L158.999032,220.999327 L159,222.07359 C159,222.625874 158.552285,223.07359 158,223.07359 C157.793992,223.07359 157.593012,223.009965 157.424533,222.891415 L154.477649,220.817825 C154.025977,220.500004 153.91747,219.876206 154.235291,219.424533 C154.301527,219.330401 154.383518,219.248411 154.477649,219.182175 L157.424533,217.108585 C157.876206,216.790764 158.500004,216.899271 158.817825,217.350944 Z" id="Arrow_White" transform="translate(159.026516, 219.999958) rotate(180.000000) translate(-159.026516, -219.999958) "></path>
        </g>
    </g>
</svg>