<?xml version="1.0" encoding="UTF-8"?>
<svg width="41px" height="65px" viewBox="0 0 41 65" version="1.1" xmlns="http://www.w3.org/2000/svg" xmlns:xlink="http://www.w3.org/1999/xlink">
    <title>Icon_Enter_Blau</title>
    <g id="Page-1" stroke="none" stroke-width="1" fill="none" fill-rule="evenodd">
        <g id="Icons" transform="translate(-67.000000, -246.000000)">
            <g id="Icon_Enter_Blau" transform="translate(67.000000, 246.000000)">
                <path d="M35,1.5 C36.2426407,1.5 37.3676407,2.00367966 38.1819805,2.81801948 C38.9963203,3.63235931 39.5,4.75735931 39.5,6 L39.5,6 L39.5,59 C39.5,60.2426407 38.9963203,61.3676407 38.1819805,62.1819805 C37.3676407,62.9963203 36.2426407,63.5 35,63.5 L35,63.5 L16.0820304,63.5 C14.8393897,63.5 13.7143897,62.9963203 12.9000499,62.1819805 C12.0857101,61.3676407 11.5820304,60.2426407 11.5820304,59 L11.5820304,59 L11.5820304,43.0219805 C11.5820304,41.215729 10.8499024,39.5804752 9.66621143,38.3967843 C8.48252049,37.2130933 6.84726669,36.4809653 5.04101521,36.4809653 C4.06319086,36.4809653 3.17793706,36.0846237 2.53713934,35.4438259 C1.89634163,34.8030282 1.5,33.9177744 1.5,32.9399501 L1.5,32.9399501 L1.5,6 C1.5,4.75735931 2.00367966,3.63235931 2.81801948,2.81801948 C3.63235931,2.00367966 4.75735931,1.5 6,1.5 L6,1.5 Z" id="Rectangle" stroke="#6671CB" stroke-width="3"></path>
                <path d="M30,21 C30,21.5128358 29.6139598,21.9355072 29.1166211,21.9932723 L29,22 L29,22 L17.9990325,22 L18,23.0735897 C18,23.6258744 17.5522847,24.0735897 17,24.0735897 C16.7939922,24.0735897 16.5930116,24.0099655 16.4245332,23.8914148 L13.4776494,21.8178251 C13.0259771,21.5000036 12.9174695,20.8762056 13.2352911,20.4245332 C13.3015274,20.3304014 13.3835176,20.2484112 13.4776494,20.1821749 L16.4245332,18.1085852 C16.8762056,17.7907636 17.5000036,17.8992712 17.8178251,18.3509435 C17.9363758,18.5194219 18,18.7204025 18,18.9264103 L17.9990325,20 L27.9990325,20 L28,17 C28,16.4477153 28.4477153,16 29,16 C29.5522847,16 30,16.4477153 30,17 L30,21 L30,21 Z" id="Combined-Shape" fill="#6671CB"></path>
            </g>
        </g>
    </g>
</svg>